<svg xmlns="http://www.w3.org/2000/svg" version="1.1" xmlns:xlink="http://www.w3.org/1999/xlink" xmlns:svgjs="http://svgjs.dev/svgjs" width="200" height="200"><svg width="200" height="200" viewBox="0 0 200 200" fill="none" xmlns="http://www.w3.org/2000/svg">
<rect width="200" height="200" rx="16" fill="#120044"></rect>
<path d="M100 0H184C192.837 0 200 7.16344 200 16V184C200 192.837 192.837 200 184 200H100V0Z" fill="#3454A6"></path>
<path d="M4.608 68.8H30.144C34.176 70.144 37.6 72.64 40.416 76.288C43.296 79.872 44.736 84.288 44.736 89.536C44.736 98.112 41.344 104.416 34.56 108.448L44.256 136H30.816L22.656 111.52H17.568V136H4.608V68.8ZM17.568 80.32V100.768H25.824C26.912 100.512 28.096 99.424 29.376 97.504C30.72 95.52 31.392 93.216 31.392 90.592C31.392 87.968 30.816 85.664 29.664 83.68C28.576 81.696 27.488 80.576 26.4 80.32H17.568ZM67.341 124.864H75.405C76.813 123.328 77.805 121.792 78.381 120.256C79.021 118.656 79.341 116.32 79.341 113.248V68.8H92.493V108.448C92.493 111.712 92.397 114.272 92.205 116.128C92.077 117.92 91.693 120.128 91.053 122.752C89.965 127.424 86.957 131.84 82.029 136H60.717C55.789 131.968 52.781 127.552 51.693 122.752C50.733 118.848 50.253 114.08 50.253 108.448V68.8H63.405V113.248C63.405 116.32 63.693 118.656 64.269 120.256C64.909 121.792 65.933 123.328 67.341 124.864Z" fill="white"></path>
<path d="M112.536 124.864H122.424C123.576 123.392 124.312 121.696 124.632 119.776C124.952 117.792 125.112 113.824 125.112 107.872V68.8H138.264V103.36C138.264 107.648 138.168 110.976 137.976 113.344C137.848 115.712 137.464 118.4 136.824 121.408C135.608 127.104 132.568 131.968 127.704 136H112.536V124.864ZM159.881 80.32V104.32H168.425C171.945 101.44 173.705 97.216 173.705 91.648C173.705 89.28 173.225 87.04 172.265 84.928C171.369 82.816 170.281 81.28 169.001 80.32H159.881ZM146.921 136V68.8H172.937C177.289 70.72 180.713 73.664 183.209 77.632C185.769 81.6 187.049 86.24 187.049 91.552C187.049 96.8 185.737 101.664 183.113 106.144C180.489 110.624 176.617 113.792 171.497 115.648H159.881V136H146.921Z" fill="white"></path>
</svg><style>@media (prefers-color-scheme: light) { :root { filter: none; } }
@media (prefers-color-scheme: dark) { :root { filter: none; } }
</style></svg>